<mxfile host="app.diagrams.net" modified="2023-07-02T21:05:41.626Z" agent="Mozilla/5.0 (Windows NT 10.0; Win64; x64) AppleWebKit/537.36 (KHTML, like Gecko) Chrome/114.0.0.0 Safari/537.36 Edg/114.0.1823.58" etag="AgJ2CjGkJmf83vBiP07m" version="21.5.0" type="google">
  <diagram name="Page-1" id="A6SoKw3PMR2TIKm4_HhH">
    <mxGraphModel dx="833" dy="248" grid="1" gridSize="10" guides="1" tooltips="1" connect="1" arrows="1" fold="1" page="1" pageScale="1" pageWidth="413" pageHeight="583" math="1" shadow="0">
      <root>
        <mxCell id="0" />
        <mxCell id="1" parent="0" />
        <mxCell id="l-7bcNaQl2llqD2NYlv--42" value="$$\hat{z}$$" style="text;html=1;align=center;verticalAlign=middle;resizable=0;points=[];autosize=1;strokeColor=none;fillColor=none;" vertex="1" parent="1">
          <mxGeometry x="310" y="180" width="80" height="30" as="geometry" />
        </mxCell>
        <mxCell id="l-7bcNaQl2llqD2NYlv--44" value="$$\varepsilon_{r1} = 12$$" style="text;html=1;align=center;verticalAlign=middle;resizable=0;points=[];autosize=1;strokeColor=none;fillColor=none;fontSize=7;" vertex="1" parent="1">
          <mxGeometry x="-25" y="220" width="100" height="20" as="geometry" />
        </mxCell>
        <mxCell id="l-7bcNaQl2llqD2NYlv--46" value="" style="group" vertex="1" connectable="0" parent="1">
          <mxGeometry x="57" y="200" width="300" height="80" as="geometry" />
        </mxCell>
        <mxCell id="l-7bcNaQl2llqD2NYlv--7" value="" style="group" vertex="1" connectable="0" parent="l-7bcNaQl2llqD2NYlv--46">
          <mxGeometry y="10" width="280" height="40" as="geometry" />
        </mxCell>
        <mxCell id="l-7bcNaQl2llqD2NYlv--13" value="" style="endArrow=blockThin;html=1;rounded=0;strokeWidth=1;endFill=1;" edge="1" parent="l-7bcNaQl2llqD2NYlv--7" source="l-7bcNaQl2llqD2NYlv--3">
          <mxGeometry width="50" height="50" relative="1" as="geometry">
            <mxPoint x="230" y="10" as="sourcePoint" />
            <mxPoint x="200" y="40" as="targetPoint" />
          </mxGeometry>
        </mxCell>
        <mxCell id="l-7bcNaQl2llqD2NYlv--15" value="" style="group" vertex="1" connectable="0" parent="l-7bcNaQl2llqD2NYlv--7">
          <mxGeometry width="280" height="40" as="geometry" />
        </mxCell>
        <mxCell id="l-7bcNaQl2llqD2NYlv--1" value="" style="endArrow=none;html=1;rounded=0;strokeWidth=4;exitX=0;exitY=1;exitDx=0;exitDy=0;entryX=1;entryY=1;entryDx=0;entryDy=0;" edge="1" parent="l-7bcNaQl2llqD2NYlv--15" source="l-7bcNaQl2llqD2NYlv--3" target="l-7bcNaQl2llqD2NYlv--3">
          <mxGeometry width="50" height="50" relative="1" as="geometry">
            <mxPoint x="45" y="50" as="sourcePoint" />
            <mxPoint x="270" y="50" as="targetPoint" />
          </mxGeometry>
        </mxCell>
        <mxCell id="l-7bcNaQl2llqD2NYlv--3" value="" style="rounded=0;whiteSpace=wrap;html=1;fillColor=#d5e8d4;strokeColor=none;" vertex="1" parent="l-7bcNaQl2llqD2NYlv--15">
          <mxGeometry width="280" height="40" as="geometry" />
        </mxCell>
        <mxCell id="l-7bcNaQl2llqD2NYlv--10" value="" style="group" vertex="1" connectable="0" parent="l-7bcNaQl2llqD2NYlv--15">
          <mxGeometry x="190" width="50" as="geometry" />
        </mxCell>
        <mxCell id="l-7bcNaQl2llqD2NYlv--11" value="" style="endArrow=none;html=1;rounded=0;strokeWidth=2;" edge="1" parent="l-7bcNaQl2llqD2NYlv--10">
          <mxGeometry width="50" height="50" relative="1" as="geometry">
            <mxPoint as="sourcePoint" />
            <mxPoint x="30" as="targetPoint" />
          </mxGeometry>
        </mxCell>
        <mxCell id="l-7bcNaQl2llqD2NYlv--12" value="" style="endArrow=none;html=1;rounded=0;strokeWidth=2;" edge="1" parent="l-7bcNaQl2llqD2NYlv--10">
          <mxGeometry width="50" height="50" relative="1" as="geometry">
            <mxPoint x="40" as="sourcePoint" />
            <mxPoint x="70" as="targetPoint" />
            <Array as="points">
              <mxPoint x="50" />
            </Array>
          </mxGeometry>
        </mxCell>
        <mxCell id="l-7bcNaQl2llqD2NYlv--16" value="" style="endArrow=blockThin;html=1;rounded=1;endFill=1;strokeWidth=0.5;fillColor=#f5f5f5;strokeColor=#666666;exitX=0.802;exitY=0.01;exitDx=0;exitDy=0;exitPerimeter=0;" edge="1" parent="l-7bcNaQl2llqD2NYlv--15" source="l-7bcNaQl2llqD2NYlv--3">
          <mxGeometry width="50" height="50" relative="1" as="geometry">
            <mxPoint x="220" as="sourcePoint" />
            <mxPoint x="190" y="40" as="targetPoint" />
          </mxGeometry>
        </mxCell>
        <mxCell id="l-7bcNaQl2llqD2NYlv--19" value="" style="endArrow=blockThin;html=1;rounded=1;endFill=1;strokeWidth=0.5;entryX=0.536;entryY=0;entryDx=0;entryDy=0;entryPerimeter=0;fillColor=#f5f5f5;strokeColor=#666666;" edge="1" parent="l-7bcNaQl2llqD2NYlv--15" target="l-7bcNaQl2llqD2NYlv--3">
          <mxGeometry width="50" height="50" relative="1" as="geometry">
            <mxPoint x="190" y="40" as="sourcePoint" />
            <mxPoint x="156" y="19.19999999999999" as="targetPoint" />
          </mxGeometry>
        </mxCell>
        <mxCell id="l-7bcNaQl2llqD2NYlv--20" value="" style="endArrow=blockThin;html=1;rounded=1;endFill=1;strokeWidth=0.5;exitX=0.535;exitY=0.05;exitDx=0;exitDy=0;exitPerimeter=0;fillColor=#f5f5f5;strokeColor=#666666;" edge="1" parent="l-7bcNaQl2llqD2NYlv--15" source="l-7bcNaQl2llqD2NYlv--3">
          <mxGeometry width="50" height="50" relative="1" as="geometry">
            <mxPoint x="146" y="2" as="sourcePoint" />
            <mxPoint x="110" y="40" as="targetPoint" />
          </mxGeometry>
        </mxCell>
        <mxCell id="l-7bcNaQl2llqD2NYlv--21" value="" style="endArrow=blockThin;html=1;rounded=1;endFill=1;strokeWidth=0.5;fillColor=#f5f5f5;strokeColor=#666666;" edge="1" parent="l-7bcNaQl2llqD2NYlv--15">
          <mxGeometry width="50" height="50" relative="1" as="geometry">
            <mxPoint x="110" y="40" as="sourcePoint" />
            <mxPoint x="70" as="targetPoint" />
          </mxGeometry>
        </mxCell>
        <mxCell id="l-7bcNaQl2llqD2NYlv--9" value="" style="group" vertex="1" connectable="0" parent="l-7bcNaQl2llqD2NYlv--15">
          <mxGeometry x="20" width="50" as="geometry" />
        </mxCell>
        <mxCell id="l-7bcNaQl2llqD2NYlv--4" value="" style="endArrow=none;html=1;rounded=0;strokeWidth=2;" edge="1" parent="l-7bcNaQl2llqD2NYlv--9">
          <mxGeometry width="50" height="50" relative="1" as="geometry">
            <mxPoint as="sourcePoint" />
            <mxPoint x="30" as="targetPoint" />
          </mxGeometry>
        </mxCell>
        <mxCell id="l-7bcNaQl2llqD2NYlv--5" value="" style="endArrow=none;html=1;rounded=0;strokeWidth=2;" edge="1" parent="l-7bcNaQl2llqD2NYlv--9">
          <mxGeometry width="50" height="50" relative="1" as="geometry">
            <mxPoint x="40" as="sourcePoint" />
            <mxPoint x="70" as="targetPoint" />
            <Array as="points">
              <mxPoint x="50" />
            </Array>
          </mxGeometry>
        </mxCell>
        <mxCell id="l-7bcNaQl2llqD2NYlv--23" value="" style="endArrow=blockThin;html=1;rounded=1;endFill=1;strokeWidth=0.5;exitX=0.535;exitY=0.05;exitDx=0;exitDy=0;exitPerimeter=0;fillColor=#f5f5f5;strokeColor=#666666;" edge="1" parent="l-7bcNaQl2llqD2NYlv--15">
          <mxGeometry width="50" height="50" relative="1" as="geometry">
            <mxPoint x="70" y="2" as="sourcePoint" />
            <mxPoint x="30" y="40" as="targetPoint" />
          </mxGeometry>
        </mxCell>
        <mxCell id="l-7bcNaQl2llqD2NYlv--25" value="" style="endArrow=blockThin;html=1;rounded=1;endFill=1;strokeWidth=0.5;fillColor=#f5f5f5;strokeColor=#666666;exitX=0.808;exitY=0.034;exitDx=0;exitDy=0;exitPerimeter=0;" edge="1" parent="l-7bcNaQl2llqD2NYlv--15" source="l-7bcNaQl2llqD2NYlv--3">
          <mxGeometry width="50" height="50" relative="1" as="geometry">
            <mxPoint x="220" as="sourcePoint" />
            <mxPoint x="260" y="40" as="targetPoint" />
          </mxGeometry>
        </mxCell>
        <mxCell id="l-7bcNaQl2llqD2NYlv--28" value="" style="endArrow=none;html=1;rounded=0;strokeWidth=0.5;entryX=0;entryY=0.25;entryDx=0;entryDy=0;fillColor=#f5f5f5;strokeColor=#666666;" edge="1" parent="l-7bcNaQl2llqD2NYlv--15" target="l-7bcNaQl2llqD2NYlv--3">
          <mxGeometry width="50" height="50" relative="1" as="geometry">
            <mxPoint x="30" y="40" as="sourcePoint" />
            <mxPoint x="-10" as="targetPoint" />
          </mxGeometry>
        </mxCell>
        <mxCell id="l-7bcNaQl2llqD2NYlv--30" value="" style="endArrow=blockThin;html=1;rounded=0;endFill=1;strokeWidth=1;fillColor=#d80073;strokeColor=#A50040;" edge="1" parent="l-7bcNaQl2llqD2NYlv--15">
          <mxGeometry width="50" height="50" relative="1" as="geometry">
            <mxPoint x="220" y="30" as="sourcePoint" />
            <mxPoint x="200" y="10" as="targetPoint" />
          </mxGeometry>
        </mxCell>
        <mxCell id="l-7bcNaQl2llqD2NYlv--32" value="" style="endArrow=blockThin;html=1;rounded=0;endFill=1;strokeWidth=1;fillColor=#d80073;strokeColor=#A50040;" edge="1" parent="l-7bcNaQl2llqD2NYlv--15">
          <mxGeometry width="50" height="50" relative="1" as="geometry">
            <mxPoint x="230" y="31" as="sourcePoint" />
            <mxPoint x="250" y="9" as="targetPoint" />
          </mxGeometry>
        </mxCell>
        <mxCell id="l-7bcNaQl2llqD2NYlv--33" value="" style="endArrow=blockThin;html=1;rounded=0;endFill=1;strokeWidth=1;fillColor=#d80073;strokeColor=#A50040;" edge="1" parent="l-7bcNaQl2llqD2NYlv--15">
          <mxGeometry width="50" height="50" relative="1" as="geometry">
            <mxPoint x="157" y="31" as="sourcePoint" />
            <mxPoint x="177" y="9" as="targetPoint" />
          </mxGeometry>
        </mxCell>
        <mxCell id="l-7bcNaQl2llqD2NYlv--34" value="" style="endArrow=blockThin;html=1;rounded=0;endFill=1;strokeWidth=1;fillColor=#d80073;strokeColor=#A50040;" edge="1" parent="l-7bcNaQl2llqD2NYlv--15">
          <mxGeometry width="50" height="50" relative="1" as="geometry">
            <mxPoint x="140" y="29.5" as="sourcePoint" />
            <mxPoint x="120" y="10.5" as="targetPoint" />
          </mxGeometry>
        </mxCell>
        <mxCell id="l-7bcNaQl2llqD2NYlv--35" value="" style="endArrow=blockThin;html=1;rounded=0;endFill=1;strokeWidth=1;fillColor=#d80073;strokeColor=#A50040;" edge="1" parent="l-7bcNaQl2llqD2NYlv--15">
          <mxGeometry width="50" height="50" relative="1" as="geometry">
            <mxPoint x="80" y="31" as="sourcePoint" />
            <mxPoint x="100" y="9" as="targetPoint" />
          </mxGeometry>
        </mxCell>
        <mxCell id="l-7bcNaQl2llqD2NYlv--36" value="" style="endArrow=blockThin;html=1;rounded=0;endFill=1;strokeWidth=1;fillColor=#d80073;strokeColor=#A50040;" edge="1" parent="l-7bcNaQl2llqD2NYlv--15">
          <mxGeometry width="50" height="50" relative="1" as="geometry">
            <mxPoint x="60" y="30.5" as="sourcePoint" />
            <mxPoint x="40" y="9.5" as="targetPoint" />
          </mxGeometry>
        </mxCell>
        <mxCell id="l-7bcNaQl2llqD2NYlv--37" value="" style="endArrow=blockThin;html=1;rounded=0;endFill=1;strokeWidth=1;fillColor=#d80073;strokeColor=#A50040;" edge="1" parent="l-7bcNaQl2llqD2NYlv--15">
          <mxGeometry width="50" height="50" relative="1" as="geometry">
            <mxPoint y="31" as="sourcePoint" />
            <mxPoint x="20" y="9" as="targetPoint" />
          </mxGeometry>
        </mxCell>
        <mxCell id="l-7bcNaQl2llqD2NYlv--40" value="" style="group" vertex="1" connectable="0" parent="l-7bcNaQl2llqD2NYlv--46">
          <mxGeometry x="250" width="50" height="60" as="geometry" />
        </mxCell>
        <mxCell id="l-7bcNaQl2llqD2NYlv--38" value="" style="endArrow=classic;html=1;rounded=0;" edge="1" parent="l-7bcNaQl2llqD2NYlv--40">
          <mxGeometry width="50" height="50" relative="1" as="geometry">
            <mxPoint x="50" y="60" as="sourcePoint" />
            <mxPoint x="50" as="targetPoint" />
          </mxGeometry>
        </mxCell>
        <mxCell id="l-7bcNaQl2llqD2NYlv--39" value="" style="endArrow=classic;html=1;rounded=0;" edge="1" parent="l-7bcNaQl2llqD2NYlv--40">
          <mxGeometry width="50" height="50" relative="1" as="geometry">
            <mxPoint x="50" y="60" as="sourcePoint" />
            <mxPoint y="60" as="targetPoint" />
          </mxGeometry>
        </mxCell>
        <mxCell id="l-7bcNaQl2llqD2NYlv--43" value="$$\hat{x}$$" style="text;html=1;align=center;verticalAlign=middle;resizable=1;points=[];autosize=1;strokeColor=none;fillColor=none;movable=1;rotatable=1;deletable=1;editable=1;locked=0;connectable=1;" vertex="1" parent="l-7bcNaQl2llqD2NYlv--46">
          <mxGeometry x="243" y="70" width="20" height="13" as="geometry" />
        </mxCell>
        <mxCell id="l-7bcNaQl2llqD2NYlv--50" value="$$E_{field}$$" style="text;html=1;align=center;verticalAlign=middle;resizable=0;points=[];autosize=1;strokeColor=none;fillColor=none;fontSize=8;" vertex="1" parent="l-7bcNaQl2llqD2NYlv--46">
          <mxGeometry y="60" width="70" height="20" as="geometry" />
        </mxCell>
        <mxCell id="l-7bcNaQl2llqD2NYlv--48" value="$$\varepsilon_{r2} = 1$$" style="text;html=1;align=center;verticalAlign=middle;resizable=0;points=[];autosize=1;strokeColor=none;fillColor=none;fontSize=8;" vertex="1" parent="1">
          <mxGeometry x="-30" y="170" width="110" height="20" as="geometry" />
        </mxCell>
        <mxCell id="l-7bcNaQl2llqD2NYlv--49" value="" style="endArrow=blockThin;html=1;rounded=0;endFill=1;strokeWidth=1;fillColor=#d80073;strokeColor=#A50040;" edge="1" parent="1">
          <mxGeometry width="50" height="50" relative="1" as="geometry">
            <mxPoint x="110" y="280" as="sourcePoint" />
            <mxPoint x="80" y="281" as="targetPoint" />
          </mxGeometry>
        </mxCell>
        <mxCell id="l-7bcNaQl2llqD2NYlv--51" value="&lt;font face=&quot;Times New Roman&quot;&gt;TM0 Mode&lt;/font&gt;" style="text;html=1;align=center;verticalAlign=middle;resizable=0;points=[];autosize=1;strokeColor=none;fillColor=none;fontFamily=Georgia;" vertex="1" parent="1">
          <mxGeometry x="155" y="150" width="80" height="30" as="geometry" />
        </mxCell>
      </root>
    </mxGraphModel>
  </diagram>
</mxfile>
